<svg id="svg" xmlns="http://www.w3.org/2000/svg" xmlns:xlink="http://www.w3.org/1999/xlink" width="400" height="400" viewBox="0, 0, 400,400"><g id="svgg"><path id="path0" d="M195.640 0.376 C 195.648 0.685,197.543 2.203,199.851 3.750 C 213.710 13.038,220.849 25.849,217.007 34.535 C 215.467 38.016,211.237 40.822,207.999 40.511 L 205.938 40.313 205.574 34.375 C 205.205 28.358,204.128 23.622,201.765 17.634 C 199.947 13.025,199.760 13.897,201.314 19.740 C 202.333 23.574,202.663 26.868,202.778 34.375 C 202.865 40.053,203.232 44.807,203.666 45.862 C 204.073 46.852,204.557 51.634,204.741 56.487 C 204.926 61.341,205.681 68.969,206.420 73.438 C 207.804 81.815,208.034 89.242,207.465 107.188 C 207.312 112.000,207.405 116.959,207.671 118.206 C 208.599 122.568,200.316 130.564,190.644 134.643 C 184.076 137.413,183.411 137.469,184.606 135.156 C 185.094 134.211,185.827 132.200,186.234 130.688 C 186.641 129.176,188.044 126.489,189.353 124.717 C 198.328 112.569,198.657 101.800,190.000 103.531 C 187.725 103.986,187.733 104.334,189.798 95.553 C 191.344 88.977,191.460 87.534,191.329 76.514 C 191.132 59.795,193.021 50.908,197.863 45.782 C 201.055 42.403,201.487 40.953,199.022 41.890 C 183.772 47.689,176.715 30.327,186.417 10.878 C 191.340 1.009,191.386 0.625,187.649 0.625 C 171.382 0.625,141.220 7.855,120.478 16.727 C 113.282 19.805,113.219 19.199,122.287 34.164 C 131.748 49.776,132.952 55.719,128.669 65.675 C 127.941 67.366,127.145 68.750,126.898 68.750 C 125.732 68.750,122.269 63.933,121.571 61.342 C 120.662 57.964,118.540 53.125,119.064 55.625 C 119.245 56.484,119.569 58.401,119.786 59.884 L 120.181 62.580 117.310 60.642 C 114.357 58.650,109.543 56.757,105.539 56.016 C 100.082 55.005,97.551 39.360,101.003 27.969 C 102.588 22.738,72.703 44.924,57.510 60.256 L 50.333 67.500 54.456 67.500 C 60.582 67.500,64.811 66.574,83.359 61.174 C 103.022 55.449,115.186 58.444,125.643 71.585 C 129.566 76.516,129.605 76.436,124.219 74.474 C 119.384 72.713,102.997 72.129,98.465 73.556 C 97.150 73.970,99.219 74.127,105.653 74.100 C 119.272 74.043,125.559 76.091,132.188 82.741 C 134.250 84.810,137.269 87.172,138.896 87.990 C 143.966 90.538,165.625 114.316,165.625 117.333 C 165.625 118.539,153.036 124.375,150.435 124.375 C 150.003 124.375,148.634 122.323,147.393 119.815 C 146.152 117.307,143.521 112.751,141.546 109.690 C 136.322 101.591,133.750 95.921,133.750 92.500 C 133.750 89.362,132.967 87.899,129.152 83.906 C 126.073 80.683,126.333 80.691,121.621 83.667 C 95.595 100.104,71.945 98.133,51.165 77.796 C 45.286 72.042,46.317 71.808,40.000 80.328 C 11.245 119.114,-4.118 171.668,0.486 215.496 C 1.246 222.727,0.462 222.338,8.830 219.641 C 39.570 209.734,58.658 197.761,73.024 179.375 C 75.844 175.766,79.307 171.343,80.718 169.548 C 94.925 151.479,114.021 139.574,147.103 128.158 C 161.523 123.183,164.560 121.704,173.516 115.305 C 190.956 102.843,197.809 102.520,192.925 114.390 C 189.320 123.150,182.422 130.717,170.813 138.643 C 156.216 148.609,150.498 156.097,158.472 154.803 C 160.304 154.506,177.352 144.687,181.574 141.497 C 182.612 140.713,188.124 138.116,193.824 135.725 C 220.772 124.421,223.597 121.919,240.313 94.550 C 249.010 80.309,261.128 69.375,268.213 69.375 C 269.422 69.375,271.250 67.128,271.250 65.642 C 271.250 65.117,269.834 63.469,268.104 61.979 C 254.272 50.067,251.963 31.048,262.545 16.187 C 264.234 13.815,263.874 13.390,257.807 10.587 C 247.491 5.821,238.386 3.424,223.750 1.621 C 214.041 0.425,195.620 -0.391,195.640 0.376 M266.665 18.906 C 267.923 23.148,269.234 25.678,273.811 32.693 C 283.160 47.023,283.887 55.226,276.593 64.063 L 275.045 65.938 275.016 61.875 C 274.987 57.864,274.190 54.418,272.235 49.844 C 270.705 46.264,270.560 47.054,272.006 51.094 C 274.004 56.678,274.195 62.809,272.529 67.936 C 271.769 70.274,270.854 73.172,270.496 74.375 C 270.137 75.578,267.941 79.656,265.616 83.438 C 259.391 93.559,253.254 104.619,243.438 123.409 C 233.662 142.121,231.278 145.373,224.877 148.734 C 210.201 156.439,192.500 169.116,192.500 171.922 C 192.500 173.093,194.827 172.452,196.297 170.875 C 197.131 169.982,198.930 168.365,200.296 167.282 C 203.941 164.391,202.087 166.837,194.377 175.088 C 186.916 183.073,187.072 182.228,192.969 182.724 C 195.633 182.948,200.906 183.585,204.688 184.140 C 253.280 191.266,298.227 159.723,308.554 111.250 C 310.165 103.687,310.166 83.182,308.555 75.625 C 307.029 68.466,302.379 55.028,300.769 53.125 C 300.624 52.953,299.055 54.385,297.284 56.306 C 291.729 62.330,290.023 63.294,284.334 63.624 C 281.606 63.781,279.375 63.720,279.375 63.487 C 279.375 62.307,281.385 59.417,282.437 59.083 C 283.097 58.873,284.014 58.245,284.475 57.686 C 285.231 56.770,285.170 56.746,283.853 57.448 C 281.997 58.437,281.679 58.097,282.483 55.983 C 282.836 55.054,283.125 52.550,283.125 50.418 L 283.125 46.542 286.160 44.556 C 287.829 43.463,289.941 42.382,290.853 42.153 C 291.765 41.924,292.677 41.470,292.878 41.144 C 294.205 38.997,278.316 22.832,269.260 17.115 C 265.885 14.984,265.567 15.203,266.665 18.906 M237.945 39.007 C 240.794 50.551,241.355 73.559,239.130 87.594 C 237.485 97.976,226.094 114.991,215.996 122.152 C 208.761 127.282,201.806 130.103,206.007 126.203 C 208.376 124.003,212.376 117.947,214.384 113.519 C 217.363 106.947,223.597 76.137,224.326 64.375 C 225.193 50.403,228.277 40.555,232.932 36.893 C 235.595 34.798,237.059 35.415,237.945 39.007 M338.857 59.209 C 348.344 92.805,343.221 130.680,325.410 158.621 C 321.481 164.785,321.553 164.648,322.560 164.026 C 333.746 157.123,353.659 141.679,372.500 125.294 C 376.109 122.155,379.695 119.055,380.469 118.404 C 382.462 116.729,382.363 116.353,377.524 107.103 C 367.985 88.872,354.274 70.499,340.851 57.959 L 337.663 54.981 338.857 59.209 M176.250 140.296 C 176.250 142.115,175.920 142.638,174.219 143.514 C 173.102 144.090,169.152 146.382,165.442 148.607 C 161.731 150.833,158.515 152.473,158.293 152.251 C 157.279 151.238,173.482 138.125,175.749 138.125 C 176.024 138.125,176.250 139.102,176.250 140.296 M389.688 182.149 C 357.758 192.752,341.975 203.158,324.506 225.124 C 310.786 242.377,298.896 252.704,283.647 260.614 C 277.014 264.054,260.121 271.250,258.677 271.250 C 254.776 271.250,233.866 280.536,227.927 284.906 C 207.714 299.779,200.349 299.341,208.495 283.750 C 212.719 275.666,219.021 269.431,231.250 261.236 C 241.291 254.508,245.853 249.530,244.133 247.178 C 242.764 245.307,233.067 249.999,219.333 259.178 C 217.075 260.687,210.607 263.833,204.958 266.170 C 179.981 276.501,176.356 279.621,162.022 303.125 C 152.906 318.072,147.745 324.116,140.628 328.177 C 136.425 330.575,136.500 330.420,134.452 340.938 C 132.835 349.238,132.468 350.046,129.018 352.883 C 125.795 355.536,122.860 358.394,119.185 362.461 C 117.877 363.908,115.838 365.497,114.653 365.992 C 113.469 366.487,112.500 367.129,112.500 367.419 C 112.500 369.287,131.254 385.000,133.483 385.000 C 133.917 385.000,134.413 385.352,134.586 385.781 C 134.774 386.248,134.921 386.122,134.951 385.469 C 134.978 384.867,135.377 384.375,135.838 384.375 C 136.298 384.375,138.149 383.569,139.950 382.584 L 143.225 380.793 139.914 378.757 C 138.093 377.636,135.540 376.577,134.239 376.403 C 132.939 376.228,131.875 375.816,131.875 375.488 C 131.875 374.496,136.879 375.632,141.250 377.616 C 146.787 380.128,153.125 379.022,153.125 375.544 C 153.125 373.502,155.596 369.331,158.833 365.908 L 161.903 362.662 160.812 356.487 C 159.346 348.187,159.310 323.228,160.751 314.063 C 162.868 300.606,176.770 282.429,190.543 275.113 C 196.412 271.995,196.507 272.031,193.020 276.056 C 185.960 284.203,184.237 288.595,179.649 310.144 C 176.829 323.387,176.045 328.376,175.594 335.938 C 174.586 352.869,170.962 362.911,164.642 366.291 C 162.285 367.551,157.500 374.663,157.500 376.906 C 157.500 377.850,157.080 378.778,156.563 378.976 C 153.768 380.049,156.560 385.460,163.804 393.008 L 169.171 398.600 174.372 399.300 C 177.233 399.685,185.569 400.000,192.896 400.000 L 206.218 400.000 207.217 398.068 C 207.767 397.005,210.019 394.333,212.222 392.130 C 216.271 388.081,215.747 386.343,211.209 388.772 C 210.459 389.173,210.000 389.189,210.000 388.814 C 210.000 388.481,210.590 388.022,211.311 387.793 C 212.299 387.479,212.550 386.999,212.329 385.842 L 212.036 384.308 213.523 385.705 C 216.766 388.752,220.563 384.845,219.811 379.235 C 219.307 375.482,217.840 373.922,210.239 369.063 C 194.682 359.117,195.485 360.346,194.941 345.625 C 194.693 338.889,193.971 330.802,193.213 326.250 C 191.758 317.513,191.626 313.856,192.045 293.887 L 192.337 279.961 194.974 276.834 C 199.227 271.790,213.846 263.012,215.402 264.568 C 216.078 265.244,212.039 274.359,209.151 278.673 C 201.346 290.334,201.294 298.565,209.030 298.026 C 212.000 297.820,211.985 297.666,209.846 306.250 C 208.712 310.805,208.508 313.613,208.421 325.938 C 208.315 340.869,208.168 341.896,204.592 352.660 C 204.084 354.189,207.376 357.065,217.069 363.564 C 226.495 369.883,227.711 371.301,229.341 377.863 C 230.018 380.585,231.712 385.063,233.107 387.813 C 234.502 390.563,235.709 393.867,235.790 395.155 C 235.970 398.014,235.933 398.011,245.193 395.922 C 267.694 390.847,291.609 380.525,311.752 367.195 L 314.289 365.516 311.422 361.825 C 309.211 358.977,308.369 358.288,307.738 358.812 C 306.303 360.003,302.595 365.965,302.126 367.836 C 301.727 369.426,301.619 369.495,301.230 368.415 C 300.959 367.666,301.243 366.284,301.956 364.869 C 302.599 363.593,303.125 362.398,303.125 362.212 C 303.125 361.497,299.217 361.921,297.313 362.843 C 295.339 363.799,295.330 363.797,296.645 362.647 C 297.377 362.006,299.529 361.135,301.425 360.710 C 305.746 359.743,306.818 357.917,305.692 353.444 C 304.883 350.232,305.168 347.694,307.262 339.463 C 309.999 328.703,308.866 325.079,302.268 323.494 C 300.560 323.084,300.493 323.147,300.872 324.813 C 301.250 326.478,301.225 326.502,300.343 325.313 C 297.422 321.367,297.462 321.335,294.781 329.844 C 291.360 340.701,291.710 343.607,296.789 346.541 C 299.680 348.211,299.682 348.214,297.500 347.791 C 296.297 347.558,294.766 347.304,294.098 347.228 C 293.430 347.152,292.773 346.758,292.639 346.353 C 292.504 345.948,292.166 345.758,291.888 345.929 C 291.610 346.101,291.374 345.611,291.364 344.840 C 291.353 344.068,291.153 341.609,290.918 339.375 C 290.615 336.495,290.776 334.229,291.470 331.589 C 292.662 327.057,292.485 326.794,289.949 329.329 C 288.860 330.419,288.144 330.875,288.359 330.343 C 288.574 329.811,288.921 328.953,289.129 328.438 C 289.338 327.922,289.197 327.500,288.817 327.500 C 288.436 327.500,288.125 327.278,288.125 327.007 C 288.125 326.735,288.883 326.524,289.809 326.538 C 292.489 326.577,293.722 323.892,292.348 321.010 C 290.419 316.965,289.209 316.599,276.594 316.250 C 260.940 315.816,252.829 310.162,237.275 288.837 C 233.099 283.114,233.107 283.102,244.024 278.765 C 250.110 276.348,249.660 276.237,251.921 280.716 C 252.988 282.829,256.093 288.094,258.822 292.416 C 261.551 296.739,264.367 301.875,265.080 303.831 C 266.677 308.211,266.250 308.072,280.016 308.699 C 292.305 309.259,293.071 309.490,297.967 314.096 C 299.627 315.658,302.663 317.862,304.712 318.993 C 312.242 323.148,313.426 326.514,311.497 338.279 C 311.020 341.191,312.793 343.068,318.995 346.216 C 321.274 347.373,322.995 348.463,322.819 348.639 C 322.644 348.815,320.812 348.088,318.750 347.025 C 315.096 345.140,314.193 345.095,315.781 346.876 C 316.757 347.971,315.880 347.399,312.002 344.416 C 310.526 343.279,309.153 342.514,308.952 342.715 C 308.149 343.517,308.028 351.614,308.791 353.438 C 309.222 354.469,309.516 355.673,309.443 356.115 C 309.258 357.237,314.016 359.187,318.172 359.693 L 321.656 360.117 326.297 356.369 C 365.839 324.436,391.278 279.553,398.796 228.457 C 400.525 216.703,400.609 179.354,398.906 179.413 C 398.305 179.434,394.156 180.666,389.688 182.149 M171.293 216.263 C 112.537 224.468,76.849 281.532,95.376 337.650 C 97.254 343.337,97.327 343.400,102.188 343.498 C 104.707 343.548,107.213 344.115,109.825 345.224 C 114.739 347.311,114.754 347.309,113.208 344.688 C 112.101 342.812,112.336 341.342,113.453 343.150 C 113.674 343.508,114.418 343.622,115.106 343.404 C 116.215 343.052,116.277 343.156,115.654 344.320 C 114.866 345.794,117.137 348.750,119.059 348.750 C 124.545 348.750,127.510 343.512,128.444 332.172 C 128.852 327.205,129.528 325.620,134.834 317.177 C 139.716 309.407,147.029 296.346,153.723 283.438 C 167.276 257.303,168.052 256.252,177.406 251.360 C 191.471 244.005,209.621 230.150,206.673 229.018 C 205.974 228.750,204.415 229.740,201.781 232.124 C 199.654 234.048,197.768 235.477,197.590 235.298 C 197.254 234.962,199.307 232.669,207.740 223.958 L 212.682 218.854 209.935 218.535 C 208.424 218.359,203.813 217.743,199.688 217.165 C 190.790 215.917,176.920 215.477,171.293 216.263 M70.938 241.743 C 51.462 255.443,18.747 282.488,18.753 284.884 C 18.760 287.812,32.386 310.521,41.230 322.346 C 47.690 330.983,63.886 348.216,62.894 345.397 C 51.383 312.680,57.378 269.620,77.764 238.594 C 79.475 235.990,78.430 236.472,70.938 241.743 M241.875 249.376 C 241.875 251.182,224.536 264.328,223.508 263.300 C 222.081 261.872,223.247 259.358,226.094 257.726 C 227.727 256.790,231.860 254.388,235.279 252.387 C 242.129 248.380,241.875 248.495,241.875 249.376 M98.750 345.728 C 98.750 346.727,103.430 355.218,106.182 359.211 C 109.361 363.826,113.996 363.805,115.934 359.168 C 117.123 356.320,117.019 355.920,115.127 356.084 C 113.735 356.205,113.906 356.017,116.094 355.016 C 119.766 353.337,119.689 353.239,111.248 348.877 C 103.844 345.051,98.750 343.768,98.750 345.728 M315.755 362.273 C 316.333 362.851,317.224 363.125,317.804 362.902 C 319.276 362.337,318.347 361.250,316.392 361.250 C 314.855 361.250,314.808 361.326,315.755 362.273 M148.750 382.008 C 142.513 383.805,138.917 385.140,137.611 386.145 L 136.159 387.261 142.984 390.502 C 146.738 392.285,150.625 393.907,151.623 394.107 L 153.438 394.472 153.268 389.267 C 152.992 380.776,152.997 380.784,148.750 382.008 M217.041 391.770 C 213.523 394.750,210.172 397.863,209.595 398.688 L 208.547 400.189 217.867 399.816 C 232.009 399.249,233.972 397.904,229.250 392.013 C 226.739 388.881,226.597 388.856,225.779 391.406 L 225.128 393.438 225.064 390.832 C 224.922 385.062,224.969 385.056,217.041 391.770 M157.889 392.319 C 156.260 393.948,157.596 396.148,160.659 396.883 C 164.852 397.889,164.947 397.553,161.330 394.503 C 159.652 393.088,158.103 392.105,157.889 392.319 " stroke="none" fill="#000000" fill-rule="evenodd"></path></g></svg>